<?xml version="1.0" encoding="utf-8"?>
<!-- Generator: Adobe Illustrator 18.1.1, SVG Export Plug-In . SVG Version: 6.00 Build 0)  -->
<svg version="1.1" id="Layer_1" xmlns="http://www.w3.org/2000/svg" xmlns:xlink="http://www.w3.org/1999/xlink" x="0px" y="0px"
	 viewBox="0 0 479 329.5" enable-background="new 0 0 479 329.5" xml:space="preserve">
<path fill="#586C7E" d="M270.6,68.4c-12.5,18.4-26.2,0.1-15.8-28.1c10.5-28.6-14.9-29.5-14.9-29.5s-25.8,1-15.3,29.5
	c10.5,28.5-3.7,46.9-16.4,27.5l0,0c-19.5-48.7-39.4-64-49.8-62.4c-14.9,1.8-23.8,6.4-10.6,22.8s18.3,34.5-2.8,6.2
	c-21-27.8-45.8-40-60.7-32.2c-14.8,7.5-19.2,30.9-2.7,37.6c16.5,6.7,19.4,14.7-6.9,3.5C48,32.5,7,49.7,1.4,64.4s6,28.8,18.4,30.8
	c12.4,1.9,31.9-13.9,76.9-29.3c45.1-15,77.6,19.5,54.7,8.4c-22.8-10.6-72.6-7.5-106.9,30.6c-34.8,37.9,4.6,74,32.7,69.6
	c27.5-4.6,32.2-29.5,27.2-24.6c-22.1,22.5-45-8.7,10.8-36.5c55.8-27.7,96.7,67,108.7,102.2c9.3,26.9,9.9,91.8,7.3,103.3
	c-2.3,10.4,6.6,10.6,8.4,10.5c1.8,0.1,10.7-0.1,8.4-10.5c-2.6-11.5-2.1-76.4,7.3-103.3c12-35.2,52.8-129.9,108.7-102.2
	s32.9,58.9,10.8,36.5c-5.1-4.9-0.3,20,27.2,24.6c28,4.4,67.5-31.7,32.7-69.6c-34.3-38.1-84.1-41.2-106.9-30.6
	c-22.8,11.1,9.6-23.3,54.7-8.4c45,15.3,64.4,31.2,76.9,29.3c12.4-1.9,24-16,18.4-30.8c-5.6-14.8-46.6-32-73.3-21
	c-26.3,11.1-23.4,3.2-6.9-3.5c16.5-6.7,12.1-30.1-2.7-37.6c-14.8-7.8-39.6,4.4-60.7,32.2c-21,28.3-16,10.2-2.8-6.2
	c13.2-16.5,4.3-21-10.6-22.8C310.1,3.8,290.2,19.3,270.6,68.4z"/>
</svg>
