<?xml version="1.0" encoding="utf-8"?>
<!-- Generator: Adobe Illustrator 18.1.1, SVG Export Plug-In . SVG Version: 6.00 Build 0)  -->
<svg version="1.1" id="Layer_1" xmlns="http://www.w3.org/2000/svg" xmlns:xlink="http://www.w3.org/1999/xlink" x="0px" y="0px"
	 viewBox="0 0 140.7 177.4" enable-background="new 0 0 140.7 177.4" xml:space="preserve">
<g>
	<path fill="#586C7E" d="M5.5,68.8c-2.9-13.6,0.7-27,7.9-29.9c7.2-3,15.4,5.9,18.3,19.6c0,0,8.1,61.9,15.7,90.7
		c7.5,28.7-5.5,15.5-7.1,2.9C38.6,139.3,7,76,5.5,68.8z"/>
</g>
<g>
	<path fill="#586C7E" d="M100.4,152.1c-1.6,12.7-14.7,25.8-7.1-2.9c7.6-28.9,15.7-90.7,15.7-90.7c2.9-13.6,11.1-22.5,18.3-19.6
		c7.2,3,10.8,16.3,7.9,29.9C133.6,76,102.1,139.3,100.4,152.1z"/>
</g>
<g>
	<g>
		<g>
			<path fill="#586C7E" d="M70.1,139.1V5.9c-14.5,0-11.7,16.3-8.8,29.9C72.6,96.9,56.2,140.3,70.1,139.1z"/>
		</g>
	</g>
	<g>
		<g>
			<path fill="#586C7E" d="M70.1,139.1V5.9c14.5,0,11.7,16.3,8.8,29.9C67.7,96.9,84.1,140.3,70.1,139.1z"/>
		</g>
	</g>
</g>
</svg>
